<?xml version="1.0" encoding="UTF-8"?>
<svg width="15px" height="13px" viewBox="0 0 15 13" version="1.1" xmlns="http://www.w3.org/2000/svg" xmlns:xlink="http://www.w3.org/1999/xlink">
    <!-- Generator: sketchtool 56 (101010) - https://sketch.com -->
    <title>640D250A-37B6-4245-A88A-2BAD14BB64C8</title>
    <desc>Created with sketchtool.</desc>
    <g id="V2" stroke="none" stroke-width="1" fill="none" fill-rule="evenodd">
        <g id="Categoria---2" transform="translate(-292.000000, -105.000000)" fill="#000000" fill-rule="nonzero">
            <g id="Filtro" transform="translate(0.000000, 86.000000)">
                <g id="Group">
                    <g id="Group-4" transform="translate(292.000000, 14.000000)">
                        <path d="M1.875,10 C2.04427168,10 2.19075459,10.0618483 2.31445312,10.1855469 C2.43815166,10.3092454 2.5,10.4557283 2.5,10.625 L2.5,11.875 C2.5,12.0442717 2.43815166,12.1907546 2.31445312,12.3144531 C2.19075459,12.4381517 2.04427168,12.5 1.875,12.5 L0.625,12.5 C0.45572832,12.5 0.30924541,12.4381517 0.185546875,12.3144531 C0.0618483398,12.1907546 0,12.0442717 0,11.875 L0,10.625 C0,10.4557283 0.0618483398,10.3092454 0.185546875,10.1855469 C0.30924541,10.0618483 0.45572832,10 0.625,10 L1.875,10 Z M14.548913,10.625 C14.671083,10.625 14.7768055,10.6868483 14.8660836,10.8105469 C14.9553616,10.9342454 15,11.0807283 15,11.25 C15,11.4192717 14.9553616,11.5657546 14.8660836,11.6894531 C14.7768055,11.8131517 14.671083,11.875 14.548913,11.875 L5.07608696,11.875 C4.95391696,11.875 4.84819451,11.8131517 4.75891644,11.6894531 C4.66963837,11.5657546 4.625,11.4192717 4.625,11.25 C4.625,11.0807283 4.66963837,10.9342454 4.75891644,10.8105469 C4.84819451,10.6868483 4.95391696,10.625 5.07608696,10.625 L14.548913,10.625 Z M1.875,15 C2.04427168,15 2.19075459,15.0618483 2.31445312,15.1855469 C2.43815166,15.3092454 2.5,15.4557283 2.5,15.625 L2.5,16.875 C2.5,17.0442717 2.43815166,17.1907546 2.31445312,17.3144531 C2.19075459,17.4381517 2.04427168,17.5 1.875,17.5 L0.625,17.5 C0.45572832,17.5 0.30924541,17.4381517 0.185546875,17.3144531 C0.0618483398,17.1907546 0,17.0442717 0,16.875 L0,15.625 C0,15.4557283 0.0618483398,15.3092454 0.185546875,15.1855469 C0.30924541,15.0618483 0.45572832,15 0.625,15 L1.875,15 Z M14.548913,15.625 C14.671083,15.625 14.7768055,15.6868483 14.8660836,15.8105469 C14.9553616,15.9342454 15,16.0807283 15,16.25 C15,16.4192717 14.9553616,16.5657546 14.8660836,16.6894531 C14.7768055,16.8131517 14.671083,16.875 14.548913,16.875 L5.07608696,16.875 C4.95391696,16.875 4.84819451,16.8131517 4.75891644,16.6894531 C4.66963837,16.5657546 4.625,16.4192717 4.625,16.25 C4.625,16.0807283 4.66963837,15.9342454 4.75891644,15.8105469 C4.84819451,15.6868483 4.95391696,15.625 5.07608696,15.625 L14.548913,15.625 Z M1.875,5 C2.04427168,5 2.19075459,5.06184834 2.31445312,5.18554688 C2.43815166,5.30924541 2.5,5.45572832 2.5,5.625 L2.5,6.875 C2.5,7.04427168 2.43815166,7.19075459 2.31445312,7.31445312 C2.19075459,7.43815166 2.04427168,7.5 1.875,7.5 L0.625,7.5 C0.45572832,7.5 0.30924541,7.43815166 0.185546875,7.31445312 C0.0618483398,7.19075459 0,7.04427168 0,6.875 L0,5.625 C0,5.45572832 0.0618483398,5.30924541 0.185546875,5.18554688 C0.30924541,5.06184834 0.45572832,5 0.625,5 L1.875,5 Z M5.07608696,6.875 C4.95391696,6.875 4.84819451,6.81315166 4.75891644,6.68945312 C4.66963837,6.56575459 4.625,6.41927168 4.625,6.25 C4.625,6.08072832 4.66963837,5.93424541 4.75891644,5.81054688 C4.84819451,5.68684834 4.95391696,5.625 5.07608696,5.625 L14.548913,5.625 C14.671083,5.625 14.7768055,5.68684834 14.8660836,5.81054688 C14.9553616,5.93424541 15,6.08072832 15,6.25 C15,6.41927168 14.9553616,6.56575459 14.8660836,6.68945312 C14.7768055,6.81315166 14.671083,6.875 14.548913,6.875 L5.07608696,6.875 Z" id="î§"></path>
                    </g>
                </g>
            </g>
        </g>
    </g>
</svg>