<?xml version="1.0" encoding="utf-8"?>
<!-- Generator: Adobe Illustrator 21.0.2, SVG Export Plug-In . SVG Version: 6.00 Build 0)  -->
<svg version="1.1" id="Livello_1" xmlns="http://www.w3.org/2000/svg" xmlns:xlink="http://www.w3.org/1999/xlink" x="0px" y="0px"
	 width="425.2px" height="425.2px" viewBox="0 0 425.2 425.2" style="enable-background:new 0 0 425.2 425.2;" xml:space="preserve"
	>
<style type="text/css">
	.st0{fill-rule:evenodd;clip-rule:evenodd;fill:#FFDA00;}
	.st1{fill-rule:evenodd;clip-rule:evenodd;fill:#232222;}
	.st2{fill-rule:evenodd;clip-rule:evenodd;fill:#E2231A;}
</style>
<g>
	<path class="st0" d="M407.7,213c0,107.8-87.4,195.3-195.3,195.3c-107.8,0-195.3-87.4-195.3-195.3c0-107.8,87.4-195.3,195.3-195.3
		C320.2,17.8,407.7,105.2,407.7,213"/>
	<path class="st1" d="M243.5,77.6c9,3,17.2,6.7,24.4,12.3c29.8,22.9,41.5,53.4,37.4,90.4c-0.4,3.8-0.1,8.7-2.6,10.7
		c-2.6,2.1-7.2-0.5-10.8-1.1c-44.1-7.9-88.3-16-132.4-23.8c-3.1-0.6-3.5-1.5-2.6-4.5c4-13.9,8.9-27.4,16.4-39.8
		c9.7-15.8,23.2-27.4,39.4-36.2c2.1-1.1,4.1-2.3,6.2-3.4c0.1,0,0.1-0.2,0.3-0.5c-1.3-0.9-2.6-0.5-3.9-0.2
		c-26.3,6.1-45.7,21.2-58.5,44.8c-5.8,10.6-10.1,21.8-12.9,33.6c-0.6,2.6-1.7,3.1-4,2.5c-3.3-0.8-6.7-1.4-10-1.8
		c-1.9-0.3-2.6-0.7-2.3-2.9c5.7-44.7,41.2-81.5,87.3-83.8c2.6-0.1,5.2-0.1,7.7-0.2c-3.3-11.8-1.2-18.8,6.6-22.5
		c6.3-2.9,13.8-1,17.9,4.5C251.8,62.3,250.8,70.1,243.5,77.6"/>
	<path class="st1" d="M308.6,303.3c-1.9,6.1-3.6,11.8-5.3,17.5c-0.4,1.5-1.2,1.8-2.5,1.7c-1.7-0.1-3.4,0-5.1,0
		c-56.4,0-112.8,0-169.2,0.1c-3.3,0-4.8-1.1-5.5-4.4c-0.9-3.7-2-7.4-3.3-11c-1-2.8-1.1-4.3,2.4-3.9c3.3,0.3,6.6,0.1,9.9,0.1
		c57.7,0,115.5,0,173.2,0H308.6z"/>
	<path class="st1" d="M314.9,241.6c0,12.7,0,24.8,0,36.8c0,3.4-1.7,5-4.2,4.1c-2.2-0.8-2.1-2.7-2.1-4.7c0.2-15,0.4-30,0.5-44.9
		c0.1-8.4,0.1-16.9,0.1-25.3c0-4.1,1.1-5,5.1-4c3.3,0.8,5.7,2.8,7.4,5.7c3.8,6.3,4.5,13.3,1.5,19.6c-4.4,9.1-2.6,17.7-0.1,26.4
		c2,6.8,4.3,13.5,6.4,20.2c0.8,2.5,2.6,6.1-1.1,7.2c-3.7,1-3.9-2.7-4.6-5.5c-2.8-11.4-6.5-22.6-8-34.3
		C315.9,242.6,315.5,242.4,314.9,241.6 M314.4,233c5.9-4.6,6.1-20.7,0-24.3V233z"/>
	<path class="st1" d="M239.1,248.5c0.4,8.3-0.6,16.5-1.3,24.8c0,0.4-0.1,0.8-0.2,1.2c-1,5.4-4.8,10-8.7,10.5
		c-3.8,0.5-7.8-2.6-10.2-8.2c-3.5-8.2-4.5-17-5.1-25.8c-0.8-12.8,0.2-25.6,1.3-38.4c0.6-6.6,3.5-10,8-10.4c6-0.6,10.2,2.3,12.2,8.7
		c2.7,8.5,3,17.3,3.8,26.1C239.4,240.7,239.1,244.6,239.1,248.5 M218.2,236.6c0.1,12.6,1.1,25.1,5.2,37.2c0.9,2.4,2,5.6,5.2,5.3
		c3-0.2,3.4-3.5,4-5.9c1.6-6,2-12.2,2.1-18.3c0.4-13.8,0.3-27.6-3.9-40.9c-0.9-3-2.2-6.7-6.1-6.4c-3.8,0.3-4.1,4.2-4.7,7.1
		C218.4,221.9,218.1,229.2,218.2,236.6"/>
	<path class="st1" d="M262.6,262.4c1.3-9.6,2.7-19.2,3.9-28.8c1.2-8.9,1.8-17.8,2.2-26.8c0-1.2,0-2.4,1.2-3.2
		c1.2-0.8,2.6-1.2,3.8-0.7c1.6,0.6,0.7,2.1,0.6,3.1c-2.4,20.4-5.8,40.8-7.3,61.3c-0.3,4-0.3,8-0.7,12c-0.2,1.9-0.5,4.3-3.3,4.3
		c-2.6,0-2.6-2.3-2.9-4c-4.5-21.6-7.3-43.5-11.2-65.1c-0.4-2.1-0.8-4.2-1.2-6.3c-0.3-1.9-1.5-4.2,1.5-4.9c3-0.7,3.5,1.7,3.8,3.9
		c1.3,8.6,2.6,17.2,4,25.7c1.6,9.9,3.2,19.7,4.8,29.6C262,262.4,262.3,262.4,262.6,262.4"/>
	<path class="st1" d="M179.1,240.6c-0.7-8.3,0.1-16.5,0.4-24.8c0.3-8.9,11.7-15.6,19.9-12c2,0.9,4.2,2.2,3.4,4.7
		c-0.9,2.7-3.2,1.9-5.3,1.1c-5-1.8-9.8,0.6-11.4,5.7c-0.7,2.1-1.1,4.4-1.2,6.7c-0.5,15.9-0.7,31.8,2.1,47.5
		c1.4,7.5,7.7,10.3,14.3,6.1c1.4-0.9,3.1-2.2,4.3-1.1c1.4,1.3,0.2,3.3-0.6,4.8c-2.3,4.1-9.7,5.8-14.8,3.4c-5.4-2.6-8.1-7-8.9-12.9
		C179.9,260.1,179.8,250.3,179.1,240.6"/>
	<path class="st1" d="M347.5,229.4c0.8-6.4,1-12.8,2.5-19c0.3-1.3,0.6-2.6,1.2-3.8c0.7-1.6,1.8-2.7,3.7-2.2c2.2,0.5,1.6,2.2,1.4,3.5
		c-0.8,5.1-1.5,10.3-2.5,15.4c-1.4,7-2.3,13.9-2.1,21.1c0.3,11.4,0,22.7,0,34.1c0,0.7,0,1.3,0,2c-0.2,1.9-1.4,3-3.2,2.8
		c-1.7-0.1-2.4-1.4-2.4-3.1c0.1-4.3,0.3-8.6,0.2-12.8c-0.2-15.8-1.2-31.5-6.8-46.5c-1.6-4.4-2.5-9-2.9-13.7
		c-0.2-1.9,0.4-3.2,2.5-3.2c1.9-0.1,3.1,0.7,3.2,2.7c0.1,1.1,0.3,2.1,0.4,3.2c0.6,5.7,1.9,11.3,3.4,16.9
		C346.4,227.6,346.3,228.8,347.5,229.4"/>
	<path class="st1" d="M283.5,242.8c0-11.6,0.1-23.3-0.1-34.9c0-2.5,0.6-3.7,3.2-3.7c2.3,0,4.5-0.5,6.8-0.3c1.9,0.1,3.8,0.9,3.7,3.3
		c0,2.3-1.9,2.6-3.7,2.9c-0.8,0.1-1.6,0.1-2.4,0c-2.2-0.3-2.8,0.6-2.6,2.7c0.7,7.6,0.9,15.2,0.4,22.8c-0.2,2.5,0.3,3.2,3,2.8
		c3.5-0.6,5.3,0.9,4.6,3.5c-0.5,1.9-1.9,2.5-3.7,2.2c-2.5-0.3-3.3,0.6-3.2,3.1c0.1,8.8,0.1,17.6,0,26.5c0,2.5,0.7,3.3,3.2,2.9
		c2-0.4,4-0.3,5.9,0.4c2.4,1,2.8,2.4,0.7,4.1c-2.1,1.8-12,2.3-14.4,0.9c-1.8-1-1.5-2.7-1.5-4.3C283.5,266,283.5,254.4,283.5,242.8
		L283.5,242.8z"/>
	<path class="st2" d="M94.8,240.4c-0.5,13-2.8,25.1-11.3,35.1c-2.2,2.5-4.6,4.8-7.7,6.3c-2.1,1-3.9,0.5-5.6-0.9
		c-1.9-1.5-0.3-2.7,0.1-4.2c1-3.5,1.3-7.1,1.1-10.7c-0.7-16.3-2.5-32.6-1.7-48.9c0.1-2.4-0.7-4.7-1.5-7c-1.4-4.2-0.2-5.9,4.3-6.3
		c8.2-0.7,15.5,4.2,19,12.4c1.6,3.7,1.7,7.5,2.1,11.4C94.1,231.9,94.4,236.4,94.8,240.4 M77.3,275.3c5.6-4.1,8.1-10.3,9.6-16.5
		c2.7-11.3,3.3-23,1-34.6c-1.1-5.4-2.9-10.7-8.4-13.4c-3.5-1.7-4.5-1-4.4,2.8c0.4,19.8,0.9,39.6,1.4,59.3
		C76.5,273.7,76.3,274.6,77.3,275.3"/>
	<path class="st2" d="M169.7,244.8c0,10.7,0,21.4,0,32.1c0,0.8,0.1,1.6,0,2.4c-0.2,2.1-0.7,4.3-3.3,4.2c-2.5-0.1-2.5-2.3-2.6-4.3
		c-0.2-10.4-0.3-20.9-0.5-31.3c-0.1-4.2-5-6.4-8.5-4.1c-1.5,1-0.9,2.4-0.8,3.7c0.5,9.5,1,19,1.6,28.4c0.1,0.9,0,1.9,0,2.8
		c0,1.5-0.5,2.8-2.1,3c-1.7,0.3-2.7-0.8-3.1-2.4c-0.3-1.2-0.6-2.4-0.6-3.5c-0.3-22.9-2.4-45.7-2.4-68.5c0-1.6-0.6-3.8,2.2-3.7
		c2.4,0.1,3.1,1.5,3,3.7c-0.7,10.3,0.8,20.6,0.5,30.9c-0.1,2.2,0.6,3.3,2.9,2.9c0.9-0.2,1.9-0.2,2.8-0.1c2.9,0.1,4.2-0.9,4-4.2
		c-0.5-9.2-0.6-18.4-0.8-27.7c0-1.1-0.1-2.2,0.3-3.2c0.3-1,1.1-1.9,2.4-1.8c1,0.1,1.7,0.8,2,1.7c0.7,1.9,0.9,3.9,0.9,5.9
		c0,11.1,0,22.2,0,33.3C168.4,244.8,169,244.8,169.7,244.8"/>
	<path class="st2" d="M99.2,191v22.7c0.6,0,1.2,0,1.8,0v-24.3c2.2,2,1.8,3.5,1.9,4.8c0.3,5.7,0.6,11.5,1,17.2
		c0.1,0.8-0.2,2.2,1.2,2.1c1.3-0.1,0.9-1.4,0.9-2.3c-0.1-5.6-0.3-11.2-0.4-16.9c0-1.4-0.8-2.9,1.1-4.5c1.3,8,0.3,15.9,2.7,23.4
		c0.7-7.3,0.1-14.6,1-21.4c-0.2-0.2,0.3,0,0.3,0.3c1,8.3,2.4,16.6,0.8,24.9c-0.1,0.8-0.2,1.8-0.7,2.2c-4.5,3.7-3.4,8.7-3.1,13.4
		c0.7,15.2,1.6,30.5,2.3,45.7c0.1,2.1,0.2,4.3-0.8,6.3c-0.5,1.2-1.3,2.1-2.6,2.2c-1.4,0.1-2.1-0.9-2.7-2c-1.3-2.3-1.4-4.9-1.4-7.4
		c0.1-15,0.3-30,0.5-45c0.1-4.7,0.4-9.4-4.5-12.4c-1.3-0.8-1.7-2.7-1.7-4.3c0.2-7.9,0.5-15.8,0.8-23.7c0-0.3,0.3-0.7,0.5-1
		C98.5,191,98.8,191,99.2,191"/>
	<path class="st2" d="M133.2,263.6c-0.2-7-2.7-13.3-5.8-19.4c-3-6.1-6.4-12-8-18.7c-1.3-5.5-1.7-11.1,0.9-16.5
		c2.7-5.8,9-8.2,13.5-5.3c1.4,0.9,2.9,2.1,2.2,3.8c-0.7,1.9-2.5,0.9-3.8,0.6c-3.7-0.7-5.8,0.4-7,4.5c-1.8,6.1,0.4,11.8,2.4,17.5
		c2.7,7.8,7.7,14.6,9.9,22.7c2.2,8.1,3.1,15.9-0.8,23.8c-3.2,6.5-10.1,9.5-16.4,6.9c-1.8-0.7-3.7-1.6-2.8-4c0.9-2.2,2.7-1.6,4.4-1.1
		c5.1,1.7,6.8,1,9-4C132.3,271,133.3,267.4,133.2,263.6"/>
</g>
</svg>
