<?xml version="1.0" encoding="UTF-8"?>
<svg width="25px" height="20px" viewBox="0 0 25 20" version="1.1" xmlns="http://www.w3.org/2000/svg" xmlns:xlink="http://www.w3.org/1999/xlink">
    <!-- Generator: sketchtool 56 (101010) - https://sketch.com -->
    <title>445BCD5B-AF28-4817-A63B-845AB5B38432</title>
    <desc>Created with sketchtool.</desc>
    <g id="V2" stroke="none" stroke-width="1" fill="none" fill-rule="evenodd">
        <g id="Homepage---4" transform="translate(-20.000000, -47.000000)" fill="#000000" fill-rule="nonzero">
            <g id="Header-1-" transform="translate(20.000000, 45.000000)">
                <g id="Group-3">
                    <path d="M0.659179688,4.29882812 C0.561522949,4.18489526 0.488281494,4.06689514 0.439453125,3.94482422 C0.390624756,3.8227533 0.366210938,3.68033936 0.366210938,3.51757812 C0.366210938,3.37109302 0.390624756,3.23274805 0.439453125,3.10253906 C0.488281494,2.97233008 0.561522949,2.85839893 0.659179688,2.76074219 C0.756836426,2.66308545 0.870767578,2.58984399 1.00097656,2.54101562 C1.13118555,2.49218726 1.26953052,2.46777344 1.41601562,2.46777344 L23.7060547,2.46777344 C23.8525398,2.46777344 23.9908848,2.49218726 24.1210938,2.54101562 C24.2513027,2.58984399 24.3652339,2.66308545 24.4628906,2.76074219 C24.5605474,2.85839893 24.6337888,2.97233008 24.6826172,3.10253906 C24.7314456,3.23274805 24.7558594,3.37109302 24.7558594,3.51757812 C24.7558594,3.68033936 24.7314456,3.8227533 24.6826172,3.94482422 C24.6337888,4.06689514 24.5605474,4.18489526 24.4628906,4.29882812 C24.3652339,4.39648486 24.2513027,4.46972632 24.1210938,4.51855469 C23.9908848,4.56738306 23.8525398,4.59179688 23.7060547,4.59179688 L1.41601562,4.59179688 C1.26953052,4.59179688 1.13118555,4.56738306 1.00097656,4.51855469 C0.870767578,4.46972632 0.756836426,4.39648486 0.659179688,4.29882812 Z M24.4628906,11.2568359 C24.5605474,11.3544927 24.6337888,11.4684238 24.6826172,11.5986328 C24.7314456,11.7288418 24.7558594,11.8671868 24.7558594,12.0136719 C24.7558594,12.160157 24.7314456,12.298502 24.6826172,12.4287109 C24.6337888,12.5589199 24.5605474,12.6728511 24.4628906,12.7705078 C24.3652339,12.8681646 24.2513027,12.941406 24.1210938,12.9902344 C23.9908848,13.0390627 23.8525398,13.0634766 23.7060547,13.0634766 L1.41601562,13.0634766 C1.26953052,13.0634766 1.13118555,13.0390627 1.00097656,12.9902344 C0.870767578,12.941406 0.756836426,12.8681646 0.659179688,12.7705078 C0.561522949,12.6728511 0.488281494,12.5589199 0.439453125,12.4287109 C0.390624756,12.298502 0.366210938,12.160157 0.366210938,12.0136719 C0.366210938,11.8671868 0.390624756,11.7288418 0.439453125,11.5986328 C0.488281494,11.4684238 0.561522949,11.3544927 0.659179688,11.2568359 C0.756836426,11.1591792 0.870767578,11.0859377 1.00097656,11.0371094 C1.13118555,10.988281 1.26953052,10.9638672 1.41601562,10.9638672 L23.7060547,10.9638672 C23.8525398,10.9638672 23.9908848,10.988281 24.1210938,11.0371094 C24.2513027,11.0859377 24.3652339,11.1591792 24.4628906,11.2568359 Z M24.4628906,19.7285156 C24.5605474,19.8261724 24.6337888,19.9401035 24.6826172,20.0703125 C24.7314456,20.2005215 24.7558594,20.3388665 24.7558594,20.4853516 C24.7558594,20.6481128 24.7314456,20.7905267 24.6826172,20.9125977 C24.6337888,21.0346686 24.5605474,21.1526687 24.4628906,21.2666016 C24.3652339,21.3642583 24.2513027,21.4374998 24.1210938,21.4863281 C23.9908848,21.5351565 23.8525398,21.5595703 23.7060547,21.5595703 L1.41601562,21.5595703 C1.26953052,21.5595703 1.13118555,21.5351565 1.00097656,21.4863281 C0.870767578,21.4374998 0.756836426,21.3642583 0.659179688,21.2666016 C0.561522949,21.1526687 0.488281494,21.0346686 0.439453125,20.9125977 C0.390624756,20.7905267 0.366210938,20.6481128 0.366210938,20.4853516 C0.366210938,20.3388665 0.390624756,20.2005215 0.439453125,20.0703125 C0.488281494,19.9401035 0.561522949,19.8261724 0.659179688,19.7285156 C0.756836426,19.6308589 0.870767578,19.5576174 1.00097656,19.5087891 C1.13118555,19.4599607 1.26953052,19.4355469 1.41601562,19.4355469 L23.7060547,19.4355469 C23.8525398,19.4355469 23.9908848,19.4599607 24.1210938,19.5087891 C24.2513027,19.5576174 24.3652339,19.6308589 24.4628906,19.7285156 Z" id="menu"></path>
                </g>
            </g>
        </g>
    </g>
</svg>