<?xml version="1.0" encoding="UTF-8"?>
<svg width="14px" height="14px" viewBox="0 0 14 14" version="1.1" xmlns="http://www.w3.org/2000/svg" xmlns:xlink="http://www.w3.org/1999/xlink">
    <!-- Generator: sketchtool 56 (101010) - https://sketch.com -->
    <title>ABAED5E5-E1CB-4E19-A606-2FE560A437C3</title>
    <desc>Created with sketchtool.</desc>
    <g id="V2" stroke="none" stroke-width="1" fill="none" fill-rule="evenodd">
        <g id="Categoria---2" transform="translate(-156.000000, -104.000000)" fill="#000000" fill-rule="nonzero">
            <g id="Filtro" transform="translate(0.000000, 86.000000)">
                <g id="Group">
                    <g id="Group-2" transform="translate(156.000000, 14.000000)">
                        <path d="M10.2083333,12.53125 L10.0625,12.7864583 L14,16.7604167 L12.7604167,18 L8.82291667,14.0260417 L8.56770833,14.2083333 C7.59548125,14.8159753 6.58681078,15.1197917 5.54166667,15.1197917 C4.01040901,15.1197917 2.70399846,14.5729221 1.62239583,13.4791667 C0.540793203,12.3854112 0,11.0729243 0,9.54166667 C0,8.01040901 0.540793203,6.70399846 1.62239583,5.62239583 C2.70399846,4.5407932 4.01040901,4 5.54166667,4 C7.07292432,4 8.37933487,4.5407932 9.4609375,5.62239583 C10.5425401,6.70399846 11.0833333,8.01040901 11.0833333,9.54166667 C11.0833333,10.6111165 10.7916696,11.6076343 10.2083333,12.53125 Z M8.640625,6.44270833 C7.7899263,5.59200964 6.75695052,5.16666667 5.54166667,5.16666667 C4.32638281,5.16666667 3.29340703,5.59200964 2.44270833,6.44270833 C1.59200964,7.29340703 1.16666667,8.32638281 1.16666667,9.54166667 C1.16666667,10.7569505 1.59200964,11.7899263 2.44270833,12.640625 C3.29340703,13.4913237 4.32638281,13.9166667 5.54166667,13.9166667 C6.75695052,13.9166667 7.7899263,13.4913237 8.640625,12.640625 C9.51562937,11.7656206 9.953125,10.7326448 9.953125,9.54166667 C9.953125,8.35068849 9.51562937,7.31771271 8.640625,6.44270833 Z" id=""></path>
                    </g>
                </g>
            </g>
        </g>
    </g>
</svg>